<svg xmlns="http://www.w3.org/2000/svg" viewBox="0 0 1440 320"><path fill="#0099ff" fill-opacity="1" d="M0,224L0,128L36.9,128L36.9,32L73.8,32L73.8,64L110.8,64L110.8,32L147.7,32L147.7,192L184.6,192L184.6,64L221.5,64L221.5,96L258.5,96L258.5,256L295.4,256L295.4,160L332.3,160L332.3,32L369.2,32L369.2,96L406.2,96L406.2,288L443.1,288L443.1,192L480,192L480,128L516.9,128L516.9,224L553.8,224L553.8,0L590.8,0L590.8,192L627.7,192L627.7,160L664.6,160L664.6,32L701.5,32L701.5,64L738.5,64L738.5,224L775.4,224L775.4,32L812.3,32L812.3,96L849.2,96L849.2,0L886.2,0L886.2,64L923.1,64L923.1,32L960,32L960,288L996.9,288L996.9,224L1033.8,224L1033.8,160L1070.8,160L1070.8,64L1107.7,64L1107.7,96L1144.6,96L1144.6,288L1181.5,288L1181.5,96L1218.5,96L1218.5,192L1255.4,192L1255.4,224L1292.3,224L1292.3,64L1329.2,64L1329.2,0L1366.2,0L1366.2,160L1403.1,160L1403.1,128L1440,128L1440,320L1403.1,320L1403.1,320L1366.2,320L1366.2,320L1329.2,320L1329.2,320L1292.3,320L1292.3,320L1255.4,320L1255.4,320L1218.5,320L1218.5,320L1181.5,320L1181.5,320L1144.6,320L1144.6,320L1107.7,320L1107.7,320L1070.8,320L1070.8,320L1033.8,320L1033.8,320L996.9,320L996.9,320L960,320L960,320L923.1,320L923.1,320L886.2,320L886.2,320L849.2,320L849.2,320L812.3,320L812.3,320L775.4,320L775.4,320L738.5,320L738.5,320L701.5,320L701.5,320L664.6,320L664.6,320L627.7,320L627.7,320L590.8,320L590.8,320L553.8,320L553.8,320L516.9,320L516.9,320L480,320L480,320L443.1,320L443.1,320L406.2,320L406.2,320L369.2,320L369.2,320L332.3,320L332.3,320L295.4,320L295.4,320L258.5,320L258.5,320L221.5,320L221.5,320L184.6,320L184.6,320L147.7,320L147.7,320L110.8,320L110.8,320L73.8,320L73.8,320L36.9,320L36.9,320L0,320L0,320Z"></path></svg>